<svg xmlns="http://www.w3.org/2000/svg" width="800" height="800" viewBox="0 0 556.23 556.23" xml:space="preserve"><path d="M177.097 556.23h202.037c17.623 0 47.496-23.934 47.496-42.113V32.025C426.63 14.363 412.104 0 394.253 0H161.979c-17.853 0-32.378 14.363-32.378 32.025v482.084c0 18.188 29.873 42.121 47.496 42.121zM143.944 32.025c0-9.754 8.09-17.681 18.035-17.681h232.274c9.943 0 18.033 7.927 18.033 17.681v19.278H143.944V32.025zm0 26.45h268.342v433.258H143.944V58.475zm0 440.429h268.342v15.213c0 9.086-22.309 27.77-33.152 27.77H177.097c-10.844 0-33.153-18.684-33.153-27.77v-15.213z"/><path d="M251.934 533.979h51.245c5.92 0 10.729-4.809 10.729-10.729 0-5.91-4.809-10.719-10.729-10.719h-51.245c-5.919 0-10.729 4.809-10.729 10.719-.001 5.93 4.809 10.729 10.729 10.729zm0-14.276h51.245c1.961 0 3.557 1.586 3.557 3.547s-1.596 3.557-3.557 3.557h-51.245c-1.96 0-3.558-1.596-3.558-3.557s1.597-3.547 3.558-3.547zM200.611 518.508h3.854c1.233 0 2.228.994 2.228 2.219a2.232 2.232 0 0 1-2.228 2.236H193.43a2.392 2.392 0 0 0 0 4.782h11.035c3.863 0 7.009-3.145 7.009-7.018 0-3.863-3.146-7-7.009-7h-3.854v-3.605l-10.327 5.957 10.327 5.967v-3.538zM348.763 518.508h13.436a2.391 2.391 0 0 0 0-4.782h-13.436a2.392 2.392 0 0 0-2.391 2.391 2.393 2.393 0 0 0 2.391 2.391zM348.763 524.809h13.436a2.391 2.391 0 0 0 0-4.782h-13.436a2.394 2.394 0 0 0-2.391 2.391 2.392 2.392 0 0 0 2.391 2.391zM348.763 530.775h13.436a2.391 2.391 0 0 0 0-4.782h-13.436a2.392 2.392 0 0 0 0 4.782z"/></svg>